<svg width="16" height="18" viewBox="0 0 16 18" fill="none" xmlns="http://www.w3.org/2000/svg">
<path d="M11.9801 5.61846C8.76725 3.66374 10.2739 0.904781 10.3386 0.790102C10.4324 0.626906 10.4321 0.426129 10.3378 0.263215C10.2435 0.100301 10.0696 0 9.88135 0C8.2275 0 6.93241 0.469898 6.0321 1.39672C4.49369 2.9803 4.56506 5.445 4.59554 6.49747C4.59895 6.61409 4.60184 6.71481 4.60184 6.78966C4.60184 7.57111 4.7272 8.29252 4.83784 8.92905C4.90914 9.33926 4.97069 9.69349 4.98166 9.97193C4.99337 10.2701 4.93891 10.3384 4.93663 10.3412C4.92886 10.3504 4.86414 10.3848 4.68927 10.3848C4.48979 10.3848 4.34277 10.3196 4.21244 10.1736C3.70352 9.60286 3.66833 8.0447 3.76564 7.19698C3.78305 7.04749 3.73576 6.89773 3.63567 6.78537C3.53562 6.67301 3.39232 6.60874 3.24189 6.60874C1.87273 6.60874 0.849609 8.84777 0.849609 10.8497C0.849609 11.7908 1.03893 12.7127 1.41225 13.5898C1.77316 14.4377 2.28778 15.2029 2.94197 15.8643C4.30424 17.2415 6.10048 18 7.99972 18C9.90667 18 11.7024 17.2522 13.0563 15.8945C14.4066 14.5403 15.1503 12.7487 15.1503 10.8496C15.1503 8.42664 13.2545 6.39373 11.9801 5.61846Z" fill="#C3C7DB"/>
</svg>
